<?xml version="1.0" encoding="UTF-8"?>
<svg id="Layer_2" data-name="Layer 2" xmlns="http://www.w3.org/2000/svg" xmlns:xlink="http://www.w3.org/1999/xlink" viewBox="0 0 1469.52 387.49">
  <defs>
    <style>
      .cls-1 {
        fill: url(#_Áåçûìÿííûé_ãðàäèåíò_40);
      }

      .cls-1, .cls-2, .cls-3, .cls-4, .cls-5, .cls-6, .cls-7 {
        stroke-miterlimit: 10;
      }

      .cls-1, .cls-2, .cls-3, .cls-5, .cls-6, .cls-7 {
        stroke: #000;
        stroke-width: 2px;
      }

      .cls-2 {
        fill: url(#_Áåçûìÿííûé_ãðàäèåíò_40-2);
      }

      .cls-8 {
        stroke-width: 0px;
      }

      .cls-3, .cls-4 {
        fill: none;
      }

      .cls-4 {
        stroke: url(#_Áåçûìÿííûé_ãðàäèåíò_40-5);
        stroke-width: 18px;
      }

      .cls-9 {
        font-family: Bahnschrift, Bahnschrift;
        font-size: 106.22px;
        font-variation-settings: 'wght' 400, 'wdth' 100;
      }

      .cls-5 {
        fill: url(#_Áåçûìÿííûé_ãðàäèåíò_40-4);
      }

      .cls-6 {
        fill: #fff;
      }

      .cls-7 {
        fill: url(#_Áåçûìÿííûé_ãðàäèåíò_40-3);
      }
    </style>
    <linearGradient id="_Áåçûìÿííûé_ãðàäèåíò_40" data-name="Áåçûìÿííûé ãðàäèåíò 40" x1="89.14" y1="83.5" x2="270.58" y2="83.5" gradientUnits="userSpaceOnUse">
      <stop offset="0" stop-color="#bb7239"/>
      <stop offset=".18" stop-color="#fceeae"/>
      <stop offset=".52" stop-color="#e09e5b"/>
      <stop offset=".75" stop-color="#fce9a4"/>
      <stop offset=".83" stop-color="#f1d693"/>
      <stop offset=".92" stop-color="#e1bd7c"/>
      <stop offset="1" stop-color="#d08a4a"/>
    </linearGradient>
    <linearGradient id="_Áåçûìÿííûé_ãðàäèåíò_40-2" data-name="Áåçûìÿííûé ãðàäèåíò 40" x1="89.14" y1="151.11" x2="125.27" y2="151.11" xlink:href="#_Áåçûìÿííûé_ãðàäèåíò_40"/>
    <linearGradient id="_Áåçûìÿííûé_ãðàäèåíò_40-3" data-name="Áåçûìÿííûé ãðàäèåíò 40" x1="235.73" y1="146.27" x2="274.19" y2="146.27" xlink:href="#_Áåçûìÿííûé_ãðàäèåíò_40"/>
    <linearGradient id="_Áåçûìÿííûé_ãðàäèåíò_40-4" data-name="Áåçûìÿííûé ãðàäèåíò 40" x1="1" y1="242.29" x2="353.19" y2="242.29" xlink:href="#_Áåçûìÿííûé_ãðàäèåíò_40"/>
    <linearGradient id="_Áåçûìÿííûé_ãðàäèåíò_40-5" data-name="Áåçûìÿííûé ãðàäèåíò 40" x1="444.24" y1="160.02" x2="1459.49" y2="160.02" xlink:href="#_Áåçûìÿííûé_ãðàäèåíò_40"/>
  </defs>
  <g id="Layer_1-2" data-name="Layer 1">
    <g>
      <path class="cls-1" d="M270.58,125.72c-4.53,15.68-18.88,26.79-32.52,36.18-.77.53-1.55,1.07-2.33,1.61l-.2-43.95s-39.38-24.34-53.7-47.25c0,0-37.95,39.38-56.56,45.82v47.87c-1.13-.49-2.26-1-3.36-1.53-14.86-7.16-26.76-20.18-32.77-35.52h0c.23-16.86,8.36-62.84,86.25-86.77.43-.14,0-8.7,0-9.39,0-3.06.07-6.14,0-9.19-6.34-2.31-12.08-8.46-14.8-21.84-.14-.69.77-1.06,1.14-.47,3.79,5.98,14.18,17.76,37.07,17.61.66-.01.88.86.31,1.17-3.68,1.97-11.59,5.5-19.43,4.55v17.26c12.08,2.28,71.69,16.78,90.9,83.84Z"/>
      <path class="cls-2" d="M121.91,164.47c1.1.53,2.23,1.04,3.36,1.53v7.26l-35.8-14.32v-23.62s-.39-2.36-.33-6.37c6.01,15.34,17.91,28.36,32.77,35.52Z"/>
      <path class="cls-7" d="M274.19,141.76s-18.61,25.06-20.76,25.06-17.7-2.75-17.7-2.75v-.56c.78-.54,1.56-1.08,2.33-1.61,13.64-9.39,27.99-20.5,32.52-36.18,1.44,5.05,2.66,10.39,3.61,16.04Z"/>
      <path class="cls-5" d="M352.97,361.56h-119.6c.74-50.98,1.48-101.97,2.22-152.95-4.82,1.7-10.1,2.11-15.12,1.16-1.19,49.65-2.37,99.29-3.55,148.93-25.57,0-51.14-.01-76.72-.01.13-37.08.26-74.18.4-111.27.02-5.76.01-11.66-1.95-17.07-1.96-5.42-6.32-10.33-11.99-11.3.01,46.54.03,93.09.06,139.64-41.56.02-83.11.04-124.67.05.51-41.59.21-83.19-.9-124.78-.38-14.24-.84-31.86,9.01-43.37,10.57-12.37,27.82-20.16,41.17-29.05,14.8-9.88,29.18-21.96,35.83-38.46.56,1.98,1.22,3.94,1.98,5.86h0c6.01,15.35,17.91,28.37,32.77,35.53,1.1.53,2.23,1.04,3.36,1.53,7.39,3.17,15.2,5.65,21.24,10.91,11.7,10.18,13.37,27.46,13.92,42.96,1.45,40.53.98,81.1.52,121.65,13.19-.24,26.39-.48,39.59-.72-.12-39.18-.24-78.37-.36-117.56-.03-12.45.99-25.29,8.56-35.93,7.01-9.85,17.12-17.01,26.99-23.8.78-.54,1.56-1.08,2.33-1.61,13.64-9.39,27.99-20.5,32.52-36.18.26-.89.49-1.79.68-2.71-.69,3.28,11.93,15.13,14.24,17.62,5.52,5.96,11.46,11.52,17.77,16.62,11.56,9.37,27.53,15.38,37.08,26.86,8.61,10.38,10.29,24.64,11.21,37.61.29,4.14.54,8.28.74,12.43,2.07,42.4-.27,84.95.67,127.41Z"/>
      <line class="cls-3" x1="126.71" y1="219" x2="126.71" y2="219"/>
      <path class="cls-6" d="M271.33,173.27s31.5,37.23,55.85,40.81v117.42h-55.85v-158.23Z"/>
      <path class="cls-6" d="M99.27,195.09l.23,136.41H32.91v-112.41s42.96-27.21,51.55-45.82c0,0,3.13,9.28,14.81,21.82Z"/>
      <path class="cls-3" d="M271.33,173.27s-15.1,27.84-35.73,35.25"/>
      <path class="cls-3" d="M84.46,331.5h-51.55v-113.12c45.11-27.92,51.55-45.11,51.55-45.11,6.48,17.12,27.89,35.13,42.24,45.73h0"/>
      <text class="cls-9" transform="translate(444.23 106.23) scale(1.06 1)"><tspan x="0" y="0">City Mosque preston</tspan></text>
      <g>
        <path class="cls-8" d="M506.83,301.63c0,2.66-2.52,6.42-7.55,11.28l-28.55,27.82c-2.99,2.91-5.92,4.36-8.81,4.36-2.73,0-5.69-1.48-8.89-4.44l-26.19-24.74c-3.36-3.16-5.03-5.36-5.03-6.62,0-2.11,1.31-4.36,3.93-6.77l14.78-13.68-3.62,6.17c-.94,1.6-1.63,2.95-2.04,4.02-.42,1.08-.63,1.89-.63,2.44,0,1.55,1.49,3.71,4.48,6.47l21.63,20.45c3.67,3.41,6.03,5.11,7.08,5.11.84,0,2.75-1.45,5.74-4.36l15.73-15.34c2.04-2,3.07-4.01,3.07-6.01s-.87-4.33-2.6-7.29l-4.95-8.35c-2.46-4.16-3.7-7.62-3.7-10.38,0-1.65.44-3.26,1.34-4.81.89-1.55,2.01-3.06,3.34-4.51,1.34-1.45,2.82-2.87,4.44-4.25,1.62-1.38,3.2-2.74,4.72-4.1-.58,1.8-.86,3.76-.86,5.87,0,1.75,1.15,4.79,3.46,9.1l7.24,13.53c1.62,3.06,2.44,6.07,2.44,9.02ZM467.12,283.66c0,1.3-1.36,3.96-4.09,7.97-1.99-2.56-4.61-4.48-7.86-5.79-2.31-.9-3.46-2.1-3.46-3.61,0-1.2,3.07-4.18,9.2-8.95.05.9.42,1.82,1.1,2.74.68.93,1.39,1.83,2.12,2.71.73.88,1.42,1.73,2.04,2.56.63.83.94,1.62.94,2.37Z"/>
        <path class="cls-8" d="M575.72,312.91h-14.47l-31.14,29.1c-4.82,4.51-10.98,6.77-18.48,6.77-1.89,0-3.51-.25-4.88-.75,1.36-.35,2.75-.79,4.17-1.32s2.87-1.2,4.36-2.03,3.05-1.83,4.68-3.01c1.62-1.18,3.3-2.57,5.03-4.17l13.68-12.63c2.1-1.96,3.15-3.46,3.15-4.51s-1.21-2.71-3.62-4.96l-11.88-11.13c-1.1-1-1.95-1.83-2.56-2.48-.6-.65-1.06-1.25-1.38-1.8-.31-.55-.51-1.11-.59-1.69-.08-.58-.12-1.29-.12-2.14,0-2.21,1.47-4.71,4.4-7.52l28.15-26.92c-.47,1.6-.71,3.26-.71,4.96,0,2.46,1.39,6.32,4.17,11.58l5.19,9.92c2.78,5.41,4.17,9.4,4.17,11.95,0,.8-.03,1.3-.08,1.5h8.73v11.28ZM556.46,305.69c0-1.3-.52-2.91-1.57-4.81l-6.61-11.95c-.73-1.25-1.1-2.33-1.1-3.23,0-.8.01-1.47.04-1.99.03-.53.06-.91.12-1.17-3.67,2.91-5.5,5.36-5.5,7.37,0,1.45.63,3.26,1.89,5.41l5.82,10.22c.84,1.46,1.39,2.62,1.65,3.5.26.88.42,1.69.47,2.44,0,.15-.01.3-.04.45-.03.15-.04.28-.04.38,3.25-2.81,4.88-5.01,4.88-6.62Z"/>
        <path class="cls-8" d="M619.76,312.91h-12.5c-.42.55-1.01,1.22-1.77,1.99-.76.78-1.67,1.64-2.71,2.59l-12.19,10.98c-.31-1.35-1.04-2.93-2.16-4.74-1.13-1.8-2.44-3.51-3.93-5.11-1.49-1.6-3.03-2.96-4.6-4.06-1.57-1.1-2.96-1.65-4.17-1.65h-5.5v-11.28h5.27c1.89,0,5.16,2.26,9.83,6.77l8.1,7.97c.89-1.15,1.34-2.3,1.34-3.46,0-.95-.87-3.13-2.6-6.54l-3.46-6.69c-2.67-5.16-4.01-8.62-4.01-10.38,0-3.06,1.28-5.96,3.85-8.72l9.75-8.95c-.73,2.36-1.1,4.31-1.1,5.86,0,1.86,1.13,4.91,3.38,9.17l5.19,9.92c.58,1.15,1.07,2.14,1.49,2.97.42.83.73,1.52.94,2.07h11.56v11.28ZM591.53,261.63c0,1.3-1.36,3.96-4.09,7.97-1.99-2.56-4.61-4.49-7.86-5.79-2.31-.9-3.46-2.1-3.46-3.61,0-1.2,3.07-4.18,9.2-8.95.05.9.42,1.82,1.1,2.74.68.93,1.39,1.83,2.12,2.71.73.88,1.42,1.73,2.04,2.56.63.83.94,1.62.94,2.37ZM609.7,261.63c0,1.3-1.36,3.96-4.09,7.97-1.99-2.56-4.61-4.49-7.86-5.79-2.31-.9-3.46-2.1-3.46-3.61,0-1.2,3.07-4.18,9.2-8.95.05.9.42,1.82,1.1,2.74.68.93,1.39,1.83,2.12,2.71.73.88,1.42,1.73,2.04,2.56.63.83.94,1.62.94,2.37Z"/>
        <path class="cls-8" d="M692.9,312.91h-78.64v-11.28h11.01l-.63-1.28c-.94-1.9-2.62-3.41-5.03-4.51l10.3-9.77,8.1,15.56h8.81l-4.09-7.74c-1.05-1.9-2.73-3.41-5.03-4.51l10.3-9.77,11.4,22.03h8.81l-7.55-14.36c-1.05-1.9-2.73-3.41-5.03-4.51l10.3-9.77,14.78,28.65h12.19v11.28Z"/>
        <path class="cls-8" d="M726.32,306.29c0,1.15-.07,2.13-.2,2.93-.13.8-.41,1.6-.83,2.41-.42.8-1.06,1.65-1.93,2.56s-2.01,2.01-3.42,3.31l-12.19,10.98c-.31-1.35-1.04-2.93-2.16-4.74-1.13-1.8-2.44-3.51-3.93-5.11-1.49-1.6-3.03-2.96-4.6-4.06-1.57-1.1-2.96-1.65-4.17-1.65h-5.5v-11.28h5.27c1.89,0,5.16,2.26,9.83,6.77l8.1,7.97c.89-1.15,1.34-2.3,1.34-3.46,0-.95-.87-3.13-2.6-6.54l-3.46-6.69c-2.67-5.16-4.01-8.62-4.01-10.38,0-3.06,1.28-5.96,3.85-8.72l9.75-8.95c-.74,2.36-1.1,4.31-1.1,5.86,0,1.86,1.13,4.91,3.38,9.17l5.19,9.92c2.25,4.41,3.38,7.64,3.38,9.7ZM704.93,337.19c0,1.3-1.36,3.96-4.09,7.97-1.99-2.56-4.61-4.49-7.86-5.79-2.31-.9-3.46-2.11-3.46-3.61,0-1.2,3.07-4.19,9.2-8.95.05.9.42,1.82,1.1,2.75.68.93,1.39,1.83,2.12,2.71.73.88,1.42,1.73,2.04,2.56.63.83.94,1.62.94,2.37ZM723.1,337.19c0,1.3-1.36,3.96-4.09,7.97-1.99-2.56-4.61-4.49-7.86-5.79-2.31-.9-3.46-2.11-3.46-3.61,0-1.2,3.07-4.19,9.2-8.95.05.9.42,1.82,1.1,2.75.68.93,1.39,1.83,2.12,2.71.73.88,1.42,1.73,2.04,2.56.63.83.94,1.62.94,2.37Z"/>
        <path class="cls-8" d="M792.15,312.91h-17.62l-31.14,29.1c-4.82,4.51-10.98,6.77-18.48,6.77-1.89,0-3.51-.25-4.88-.75,2.78-.7,5.66-1.84,8.65-3.42,2.99-1.58,6.19-3.95,9.59-7.1l23.59-21.95c4.09-3.81,6.13-6.94,6.13-9.4,0-.55-1.29-3.28-3.85-8.19l-3.46-6.69c-2.67-5.16-4.01-8.62-4.01-10.38,0-3.06,1.28-5.96,3.85-8.72l9.75-8.95c-.74,2.36-1.1,4.31-1.1,5.86,0,1.85,1.13,4.91,3.38,9.17l5.19,9.92c2.78,5.41,4.17,9.4,4.17,11.95,0,.8-.03,1.3-.08,1.5h10.3v11.28Z"/>
        <path class="cls-8" d="M825.57,306.29c0,1.15-.07,2.13-.2,2.93-.13.8-.41,1.6-.83,2.41-.42.8-1.06,1.65-1.93,2.56s-2.01,2.01-3.42,3.31l-12.19,10.98c-.31-1.35-1.04-2.93-2.16-4.74-1.13-1.8-2.44-3.51-3.93-5.11-1.49-1.6-3.03-2.96-4.6-4.06-1.57-1.1-2.96-1.65-4.17-1.65h-5.5v-11.28h5.27c1.89,0,5.16,2.26,9.83,6.77l8.1,7.97c.89-1.15,1.34-2.3,1.34-3.46,0-.95-.87-3.13-2.6-6.54l-3.46-6.69c-2.67-5.16-4.01-8.62-4.01-10.38,0-3.06,1.28-5.96,3.85-8.72l9.75-8.95c-.74,2.36-1.1,4.31-1.1,5.86,0,1.86,1.13,4.91,3.38,9.17l5.19,9.92c2.25,4.41,3.38,7.64,3.38,9.7ZM805.59,335.69c0,1.3-1.36,3.96-4.09,7.97-1.99-2.56-4.61-4.49-7.86-5.79-2.31-.9-3.46-2.11-3.46-3.61,0-1.2,3.07-4.19,9.2-8.95.05.9.42,1.82,1.1,2.74.68.93,1.39,1.83,2.12,2.71.73.88,1.42,1.73,2.04,2.56s.94,1.62.94,2.37Z"/>
        <path class="cls-8" d="M924.81,312.91h-59.22c2.15-2.61,3.22-4.36,3.22-5.26,0-.45-.16-1.09-.47-1.92s-.67-1.75-1.06-2.78c-.39-1.03-.75-2.07-1.06-3.12-.31-1.05-.47-2.03-.47-2.93,0-3.61,1.39-6.74,4.17-9.4l13.05-12.56-4.72-8.65,10.7-9.62,4.48,8.2,5.27-5.04c-1.15,3.01-1.73,5.89-1.73,8.65,0,2.06,1.83,6.49,5.5,13.31l10.7,19.85h11.64v11.28ZM897.21,301.63l-5.43-10.23c-1.73-3.21-2.59-5.64-2.59-7.29-.05.05-.34.33-.87.83-.52.5-1.09,1.09-1.69,1.77-.6.68-1.15,1.35-1.65,2.03s-.75,1.22-.75,1.62c0,1.3.47,2.81,1.42,4.51l3.7,6.77c.84.05,1.61.08,2.32.08h3.93c.55,0,1.09-.02,1.61-.08Z"/>
        <path class="cls-8" d="M968.85,312.91h-12.5c-.42.55-1.01,1.22-1.77,1.99-.76.78-1.67,1.64-2.71,2.59l-12.19,10.98c-.31-1.35-1.04-2.93-2.16-4.74-1.13-1.8-2.44-3.51-3.93-5.11-1.49-1.6-3.03-2.96-4.6-4.06-1.57-1.1-2.96-1.65-4.17-1.65h-5.5v-11.28h5.27c1.89,0,5.16,2.26,9.83,6.77l8.1,7.97c.89-1.15,1.34-2.3,1.34-3.46,0-.95-.87-3.13-2.6-6.54l-3.46-6.69c-2.67-5.16-4.01-8.62-4.01-10.38,0-3.06,1.28-5.96,3.85-8.72l9.75-8.95c-.74,2.36-1.1,4.31-1.1,5.86,0,1.86,1.13,4.91,3.38,9.17l5.19,9.92c.58,1.15,1.07,2.14,1.49,2.97.42.83.73,1.52.94,2.07h11.56v11.28ZM943.84,261.63c0,1.3-1.36,3.96-4.09,7.97-1.99-2.56-4.61-4.49-7.86-5.79-2.31-.9-3.46-2.1-3.46-3.61,0-1.2,3.07-4.18,9.2-8.95.05.9.42,1.82,1.1,2.74.68.93,1.39,1.83,2.12,2.71.73.88,1.42,1.73,2.04,2.56.63.83.94,1.62.94,2.37Z"/>
        <path class="cls-8" d="M1002.27,306.29c0,1.15-.07,2.13-.2,2.93-.13.8-.41,1.6-.83,2.41-.42.8-1.06,1.65-1.93,2.56s-2.01,2.01-3.42,3.31l-12.19,10.98c-.31-1.35-1.04-2.93-2.16-4.74-1.13-1.8-2.44-3.51-3.93-5.11-1.49-1.6-3.03-2.96-4.6-4.06-1.57-1.1-2.96-1.65-4.17-1.65h-5.5v-11.28h5.27c1.89,0,5.16,2.26,9.83,6.77l8.1,7.97c.89-1.15,1.34-2.3,1.34-3.46,0-.95-.87-3.13-2.6-6.54l-3.46-6.69c-2.67-5.16-4.01-8.62-4.01-10.38,0-3.06,1.28-5.96,3.85-8.72l9.75-8.95c-.74,2.36-1.1,4.31-1.1,5.86,0,1.86,1.13,4.91,3.38,9.17l5.19,9.92c2.25,4.41,3.38,7.64,3.38,9.7ZM980.88,337.19c0,1.3-1.36,3.96-4.09,7.97-1.99-2.56-4.61-4.49-7.86-5.79-2.31-.9-3.46-2.11-3.46-3.61,0-1.2,3.07-4.19,9.2-8.95.05.9.42,1.82,1.1,2.75.68.93,1.39,1.83,2.12,2.71.73.88,1.42,1.73,2.04,2.56.63.83.94,1.62.94,2.37ZM999.05,337.19c0,1.3-1.36,3.96-4.09,7.97-1.99-2.56-4.61-4.49-7.86-5.79-2.31-.9-3.46-2.11-3.46-3.61,0-1.2,3.07-4.19,9.2-8.95.05.9.42,1.82,1.1,2.75.68.93,1.39,1.83,2.12,2.71.73.88,1.42,1.73,2.04,2.56.63.83.94,1.62.94,2.37Z"/>
        <path class="cls-8" d="M1098.22,312.91h-81v-18.42c6.82,4.76,13.71,7.14,20.68,7.14h35.62l-3.22-6.09h-30.28c-4.61,0-8.52-3.08-11.72-9.25l-6.29-11.95c-1.05-1.9-2.73-3.41-5.03-4.51l10.3-9.77,9.83,18.95c1.78,3.51,4.27,5.26,7.47,5.26h32.95c1.36,0,2.96,1.88,4.8,5.64l5.66,11.73h10.22v11.28Z"/>
        <path class="cls-8" d="M1150.27,312.91h-57.57v-11.28h7.39l-1.42-2.86c-.84-1.4-1.26-2.73-1.26-3.98,0-2.66,1.15-5.09,3.46-7.29l28.78-27.67c-1.15,3.01-1.73,5.89-1.73,8.65,0,2.1,1.57,6.04,4.72,11.8l17.62,32.63ZM1128.18,301.63l-5.43-10.23c-1.73-3.21-2.6-5.64-2.6-7.29-.05.05-.34.33-.86.83-.53.5-1.09,1.09-1.69,1.77-.6.68-1.15,1.35-1.65,2.03-.5.68-.75,1.22-.75,1.62,0,1.3.47,2.81,1.42,4.51l3.7,6.77c.84.05,1.61.08,2.32.08h3.93c.55,0,1.09-.02,1.61-.08Z"/>
        <path class="cls-8" d="M1272.96,312.91h-81v-18.42c6.82,4.76,13.71,7.14,20.68,7.14h35.62l-3.22-6.09h-30.28c-4.61,0-8.52-3.08-11.72-9.25l-6.29-11.95c-1.05-1.9-2.73-3.41-5.03-4.51l10.3-9.77,9.83,18.95c1.78,3.51,4.27,5.26,7.47,5.26h32.95c1.36,0,2.96,1.88,4.8,5.64l5.66,11.73h10.22v11.28Z"/>
        <path class="cls-8" d="M1336.81,323.66c-1,.55-2.25.83-3.77.83-11.06,0-20.47-3.86-28.23-11.58h-37.35v-11.28h29.41l-6.76-9.92c-1.68-2.46-3.41-4.26-5.19-5.41-1.78-1.15-3.51-1.73-5.19-1.73-2.25,0-4.51.55-6.76,1.65l14.31-13.68c3.35-3.21,5.82-4.81,7.39-4.81,1.21,0,2.83,1.96,4.88,5.86l14.71,28.04h17.69v11.28h-10.93c2.62,3.46,6.21,6.34,10.77,8.65,1.36.4,3.04,1.1,5.03,2.11ZM1298.36,327.72c0,1.3-1.36,3.96-4.09,7.97-1.99-2.56-4.61-4.49-7.86-5.79-2.31-.9-3.46-2.11-3.46-3.61,0-1.2,3.07-4.18,9.2-8.95.05.9.42,1.82,1.1,2.74.68.93,1.39,1.83,2.12,2.71.73.88,1.42,1.73,2.04,2.56.63.83.94,1.62.94,2.37Z"/>
        <path class="cls-8" d="M1405.07,312.91h-78.64v-11.28h11.01l-.63-1.28c-.94-1.9-2.62-3.41-5.03-4.51l10.3-9.77,8.1,15.56h8.81l-4.09-7.74c-1.05-1.9-2.73-3.41-5.03-4.51l10.3-9.77,11.4,22.03h8.81l-7.55-14.36c-1.05-1.9-2.73-3.41-5.03-4.51l10.3-9.77,14.78,28.65h12.19v11.28Z"/>
        <path class="cls-8" d="M1457.13,312.91h-57.57v-11.28h7.39l-1.42-2.86c-.84-1.4-1.26-2.73-1.26-3.98,0-2.66,1.15-5.09,3.46-7.29l28.78-27.67c-1.15,3.01-1.73,5.89-1.73,8.65,0,2.1,1.57,6.04,4.72,11.8l17.62,32.63ZM1435.03,301.63l-5.43-10.23c-1.73-3.21-2.6-5.64-2.6-7.29-.05.05-.34.33-.86.83-.53.5-1.09,1.09-1.69,1.77-.6.68-1.15,1.35-1.65,2.03-.5.68-.75,1.22-.75,1.62,0,1.3.47,2.81,1.42,4.51l3.7,6.77c.84.05,1.61.08,2.32.08h3.93c.55,0,1.09-.02,1.61-.08Z"/>
      </g>
      <line class="cls-4" x1="444.24" y1="160.02" x2="1459.49" y2="160.02"/>
    </g>
  </g>
</svg>