<?xml version="1.0" encoding="UTF-8"?>
<svg id="Layer_2" data-name="Layer 2" xmlns="http://www.w3.org/2000/svg" xmlns:xlink="http://www.w3.org/1999/xlink" viewBox="0 0 354.19 362.56">
  <defs>
    <style>
      .cls-1 {
        fill: url(#_Áåçûìÿííûé_ãðàäèåíò_40);
      }

      .cls-1, .cls-2, .cls-3, .cls-4, .cls-5, .cls-6 {
        stroke: #000;
        stroke-miterlimit: 10;
        stroke-width: 2px;
      }

      .cls-2 {
        fill: url(#_Áåçûìÿííûé_ãðàäèåíò_40-2);
      }

      .cls-3 {
        fill: none;
      }

      .cls-4 {
        fill: url(#_Áåçûìÿííûé_ãðàäèåíò_40-4);
      }

      .cls-5 {
        fill: #fff;
      }

      .cls-6 {
        fill: url(#_Áåçûìÿííûé_ãðàäèåíò_40-3);
      }
    </style>
    <linearGradient id="_Áåçûìÿííûé_ãðàäèåíò_40" data-name="Áåçûìÿííûé ãðàäèåíò 40" x1="89.14" y1="83.5" x2="270.58" y2="83.5" gradientUnits="userSpaceOnUse">
      <stop offset="0" stop-color="#bb7239"/>
      <stop offset=".18" stop-color="#fceeae"/>
      <stop offset=".52" stop-color="#e09e5b"/>
      <stop offset=".75" stop-color="#fce9a4"/>
      <stop offset=".83" stop-color="#f1d693"/>
      <stop offset=".92" stop-color="#e1bd7c"/>
      <stop offset="1" stop-color="#d08a4a"/>
    </linearGradient>
    <linearGradient id="_Áåçûìÿííûé_ãðàäèåíò_40-2" data-name="Áåçûìÿííûé ãðàäèåíò 40" x1="89.14" y1="151.11" x2="125.27" y2="151.11" xlink:href="#_Áåçûìÿííûé_ãðàäèåíò_40"/>
    <linearGradient id="_Áåçûìÿííûé_ãðàäèåíò_40-3" data-name="Áåçûìÿííûé ãðàäèåíò 40" x1="235.73" y1="146.27" x2="274.19" y2="146.27" xlink:href="#_Áåçûìÿííûé_ãðàäèåíò_40"/>
    <linearGradient id="_Áåçûìÿííûé_ãðàäèåíò_40-4" data-name="Áåçûìÿííûé ãðàäèåíò 40" x1="1" y1="242.29" x2="353.19" y2="242.29" xlink:href="#_Áåçûìÿííûé_ãðàäèåíò_40"/>
  </defs>
  <g id="Layer_1-2" data-name="Layer 1">
    <path class="cls-1" d="M270.58,125.72c-4.53,15.68-18.88,26.79-32.52,36.18-.77.53-1.55,1.07-2.33,1.61l-.2-43.95s-39.38-24.34-53.7-47.25c0,0-37.95,39.38-56.56,45.82v47.87c-1.13-.49-2.26-1-3.36-1.53-14.86-7.16-26.76-20.18-32.77-35.52h0c.23-16.86,8.36-62.84,86.25-86.77.43-.14,0-8.7,0-9.39,0-3.06.07-6.14,0-9.19-6.34-2.31-12.08-8.46-14.8-21.84-.14-.69.77-1.06,1.14-.47,3.79,5.98,14.18,17.76,37.07,17.61.66-.01.88.86.31,1.17-3.68,1.97-11.59,5.5-19.43,4.55v17.26c12.08,2.28,71.69,16.78,90.9,83.84Z"/>
    <path class="cls-2" d="M121.91,164.47c1.1.53,2.23,1.04,3.36,1.53v7.26l-35.8-14.32v-23.62s-.39-2.36-.33-6.37c6.01,15.34,17.91,28.36,32.77,35.52Z"/>
    <path class="cls-6" d="M274.19,141.76s-18.61,25.06-20.76,25.06-17.7-2.75-17.7-2.75v-.56c.78-.54,1.56-1.08,2.33-1.61,13.64-9.39,27.99-20.5,32.52-36.18,1.44,5.05,2.66,10.39,3.61,16.04Z"/>
    <path class="cls-4" d="M352.97,361.56h-119.6c.74-50.98,1.48-101.97,2.22-152.95-4.82,1.7-10.1,2.11-15.12,1.16-1.19,49.65-2.37,99.29-3.55,148.93-25.57,0-51.14-.01-76.72-.01.13-37.08.26-74.18.4-111.27.02-5.76.01-11.66-1.95-17.07-1.96-5.42-6.32-10.33-11.99-11.3.01,46.54.03,93.09.06,139.64-41.56.02-83.11.04-124.67.05.51-41.59.21-83.19-.9-124.78-.38-14.24-.84-31.86,9.01-43.37,10.57-12.37,27.82-20.16,41.17-29.05,14.8-9.88,29.18-21.96,35.83-38.46.56,1.98,1.22,3.94,1.98,5.86h0c6.01,15.35,17.91,28.37,32.77,35.53,1.1.53,2.23,1.04,3.36,1.53,7.39,3.17,15.2,5.65,21.24,10.91,11.7,10.18,13.37,27.46,13.92,42.96,1.45,40.53.98,81.1.52,121.65,13.19-.24,26.39-.48,39.59-.72-.12-39.18-.24-78.37-.36-117.56-.03-12.45.99-25.29,8.56-35.93,7.01-9.85,17.12-17.01,26.99-23.8.78-.54,1.56-1.08,2.33-1.61,13.64-9.39,27.99-20.5,32.52-36.18.26-.89.49-1.79.68-2.71-.69,3.28,11.93,15.13,14.24,17.62,5.52,5.96,11.46,11.52,17.77,16.62,11.56,9.37,27.53,15.38,37.08,26.86,8.61,10.38,10.29,24.64,11.21,37.61.29,4.14.54,8.28.74,12.43,2.07,42.4-.27,84.95.67,127.41Z"/>
    <line class="cls-3" x1="126.71" y1="219" x2="126.71" y2="219"/>
    <path class="cls-5" d="M271.33,173.27s31.5,37.23,55.85,40.81v117.42h-55.85v-158.23Z"/>
    <path class="cls-5" d="M99.27,195.09l.23,136.41H32.91v-112.41s42.96-27.21,51.55-45.82c0,0,3.13,9.28,14.81,21.82Z"/>
    <path class="cls-3" d="M271.33,173.27s-15.1,27.84-35.73,35.25"/>
    <path class="cls-3" d="M84.46,331.5h-51.55v-113.12c45.11-27.92,51.55-45.11,51.55-45.11,6.48,17.12,27.89,35.13,42.24,45.73h0"/>
  </g>
</svg>