<?xml version="1.0" encoding="UTF-8"?>
<svg xmlns="http://www.w3.org/2000/svg" width="60" height="60" viewBox="0 0 60 60" fill="none">
  <path d="M45.048 10.5058C48.5677 10.5096 51.9421 11.9095 54.4309 14.3983C56.9197 16.8871 58.3196 20.2615 58.3234 23.7812C58.3234 23.8031 58.3234 23.8258 58.3234 23.8477C58.3234 23.8914 58.3291 23.9571 58.334 24.0439C58.6064 28.865 57.8183 41.8817 44.6483 58.5609C44.5297 58.7107 44.362 58.8138 44.1748 58.852C43.9876 58.8902 43.7929 58.8611 43.625 58.7698C43.4572 58.6784 43.327 58.5308 43.2575 58.3528C43.1879 58.1749 43.1834 57.9781 43.2448 57.7971C43.2821 57.6869 46.8813 46.9055 44.4221 37.0404C40.9583 36.8778 37.6957 35.3665 35.3318 32.8295C32.9679 30.2926 31.6905 26.9315 31.7727 23.4649C31.8549 19.9983 33.2902 16.7015 35.7716 14.2794C38.2531 11.8574 41.5837 10.5023 45.0513 10.5042L45.048 10.5058ZM56.7018 23.735C56.6928 21.432 56.0017 19.1834 54.7158 17.2729C53.4298 15.3624 51.6066 13.8758 49.4764 13.0007C47.3461 12.1256 45.0044 11.9013 42.7468 12.3561C40.4892 12.8109 38.4169 13.9243 36.7916 15.5559C35.1664 17.1875 34.0609 19.2641 33.6149 21.5235C33.169 23.7828 33.4024 26.1237 34.2857 28.2505C35.1691 30.3773 36.6628 32.1947 38.5783 33.4732C40.4937 34.7518 42.7451 35.4341 45.048 35.4342C45.2256 35.4342 45.3982 35.4925 45.5394 35.6002C45.6806 35.7078 45.7826 35.8589 45.8296 36.0301C47.6945 42.8166 46.7799 49.9355 45.8532 54.2555C56.2996 39.622 56.9556 28.4523 56.7115 24.1347C56.7005 24.0018 56.6973 23.8683 56.7018 23.735Z" fill="#DB9E30"></path>
  <path d="M14.897 10.5058C18.4167 10.5096 21.7911 11.9095 24.2799 14.3983C26.7687 16.8871 28.1686 20.2615 28.1724 23.7812C28.1724 23.8031 28.1724 23.8258 28.1724 23.8477C28.1724 23.8914 28.1781 23.9571 28.183 24.0439C28.4554 28.865 27.6673 41.8817 14.4973 58.5609C14.3787 58.7107 14.211 58.8138 14.0238 58.852C13.8366 58.8902 13.6419 58.8611 13.474 58.7698C13.3062 58.6784 13.176 58.5308 13.1065 58.3528C13.0369 58.1749 13.0324 57.9781 13.0938 57.7971C13.1311 57.6869 16.7303 46.9055 14.2711 37.0404C10.8073 36.8778 7.54466 35.3665 5.18079 32.8295C2.81691 30.2926 1.53949 26.9315 1.62168 23.4649C1.70388 19.9983 3.13917 16.7015 5.62062 14.2794C8.10208 11.8574 11.4327 10.5023 14.9003 10.5042L14.897 10.5058ZM26.5508 23.735C26.5418 21.432 25.8507 19.1834 24.5648 17.2729C23.2788 15.3624 21.4556 13.8758 19.3254 13.0007C17.1951 12.1256 14.8534 11.9013 12.5958 12.3561C10.3382 12.8109 8.2659 13.9243 6.64063 15.5559C5.01536 17.1875 3.90995 19.2641 3.46395 21.5235C3.01795 23.7828 3.25137 26.1237 4.13474 28.2505C5.0181 30.3773 6.51181 32.1947 8.42727 33.4732C10.3427 34.7518 12.5941 35.4341 14.897 35.4342C15.0746 35.4342 15.2472 35.4925 15.3884 35.6002C15.5296 35.7078 15.6316 35.8589 15.6786 36.0301C17.5435 42.8166 16.6289 49.9355 15.7022 54.2555C26.1486 39.622 26.8054 28.4523 26.5613 24.1347C26.5501 24.0018 26.5465 23.8683 26.5508 23.735Z" fill="#DB9E30"></path>
</svg>
