<svg width="25" height="24" viewBox="0 0 25 24" fill="none" xmlns="http://www.w3.org/2000/svg">
<path d="M23.7047 11.745C22.8226 9.46324 21.2912 7.48996 19.2998 6.06906C17.3084 4.64817 14.9443 3.84193 12.4997 3.75C10.0551 3.84193 7.69097 4.64817 5.69958 6.06906C3.70819 7.48996 2.1768 9.46324 1.29468 11.745C1.23511 11.9098 1.23511 12.0902 1.29468 12.255C2.1768 14.5368 3.70819 16.51 5.69958 17.9309C7.69097 19.3518 10.0551 20.1581 12.4997 20.25C14.9443 20.1581 17.3084 19.3518 19.2998 17.9309C21.2912 16.51 22.8226 14.5368 23.7047 12.255C23.7643 12.0902 23.7643 11.9098 23.7047 11.745ZM12.4997 18.75C8.52468 18.75 4.32468 15.8025 2.80218 12C4.32468 8.1975 8.52468 5.25 12.4997 5.25C16.4747 5.25 20.6747 8.1975 22.1972 12C20.6747 15.8025 16.4747 18.75 12.4997 18.75Z" fill="#8D98AF"/>
<path d="M12.5 7.5C11.61 7.5 10.74 7.76392 9.99994 8.25839C9.25991 8.75285 8.68314 9.45566 8.34254 10.2779C8.00195 11.1002 7.91283 12.005 8.08647 12.8779C8.2601 13.7508 8.68869 14.5526 9.31802 15.182C9.94736 15.8113 10.7492 16.2399 11.6221 16.4135C12.495 16.5872 13.3998 16.4981 14.2221 16.1575C15.0443 15.8169 15.7471 15.2401 16.2416 14.5001C16.7361 13.76 17 12.89 17 12C17 10.8065 16.5259 9.66193 15.682 8.81802C14.8381 7.97411 13.6935 7.5 12.5 7.5ZM12.5 15C11.9067 15 11.3266 14.8241 10.8333 14.4944C10.3399 14.1648 9.95543 13.6962 9.72836 13.1481C9.5013 12.5999 9.44189 11.9967 9.55765 11.4147C9.6734 10.8328 9.95912 10.2982 10.3787 9.87868C10.7982 9.45912 11.3328 9.1734 11.9147 9.05764C12.4967 8.94189 13.0999 9.0013 13.6481 9.22836C14.1962 9.45542 14.6648 9.83994 14.9944 10.3333C15.3241 10.8266 15.5 11.4067 15.5 12C15.5 12.7957 15.1839 13.5587 14.6213 14.1213C14.0587 14.6839 13.2957 15 12.5 15Z" fill="#8D98AF"/>
</svg>
